<svg version="1.1" xmlns="http://www.w3.org/2000/svg" xmlns:xlink="http://www.w3.org/1999/xlink" width="636" height="236"><defs/><g><g transform="translate(-22,-102) scale(1,1)"><path fill="#C0C0C0" stroke="none" d="M 39 129 L 244 129 L 244 238 L 39 238" opacity="0.2"/></g><g transform="translate(-22,-102) scale(1,1)"><path fill="#C0C0C0" stroke="none" d="M 39 129 L 49 119 L 254 119 L 244 129" opacity="0.2"/></g><g transform="translate(-22,-102) scale(1,1)"><path fill="#C0C0C0" stroke="none" d="M 254 119 L 244 129 L 244 238 L 254 228" opacity="0.2"/></g><g transform="translate(-22,-102) scale(1,1)"><path fill="#ffffff" stroke="none" d="M 32 122 L 237 122 L 237 231 L 32 231"/></g><g transform="translate(-22,-102) scale(1,1)"><path fill="#ffffff" stroke="none" d="M 32 122 L 42 112 L 247 112 L 237 122"/></g><g transform="translate(-22,-102) scale(1,1)"><path fill="#ffffff" stroke="none" d="M 247 112 L 237 122 L 237 231 L 247 221"/></g><g transform="translate(-22,-102) scale(1,1)"><path fill="none" stroke="#000000" d="M 32 122 L 237 122 L 237 231 L 32 231 L 32 122" stroke-miterlimit="10"/></g><g transform="translate(-22,-102) scale(1,1)"><path fill="none" stroke="#000000" d="M 32 122 L 42 112 L 247 112 L 237 122 L 32 122" stroke-miterlimit="10"/></g><g transform="translate(-22,-102) scale(1,1)"><path fill="none" stroke="#000000" d="M 247 112 L 237 122 L 237 231 L 247 221 L 247 112" stroke-miterlimit="10"/></g><g transform="translate(-22,-102) scale(1,1)"><g><path fill="none" stroke="none"/><text fill="#000000" stroke="none" font-family="Arial" font-size="13px" font-style="normal" font-weight="bold" text-decoration="none" x="103.56640625" y="141.5">Client Side</text></g></g><g transform="translate(-22,-102) scale(1,1)"><path fill="#C0C0C0" stroke="none" d="M 439 129 L 644 129 L 644 334 L 439 334" opacity="0.2"/></g><g transform="translate(-22,-102) scale(1,1)"><path fill="#C0C0C0" stroke="none" d="M 439 129 L 449 119 L 654 119 L 644 129" opacity="0.2"/></g><g transform="translate(-22,-102) scale(1,1)"><path fill="#C0C0C0" stroke="none" d="M 654 119 L 644 129 L 644 334 L 654 324" opacity="0.2"/></g><g transform="translate(-22,-102) scale(1,1)"><path fill="#ffffff" stroke="none" d="M 432 122 L 637 122 L 637 327 L 432 327"/></g><g transform="translate(-22,-102) scale(1,1)"><path fill="#ffffff" stroke="none" d="M 432 122 L 442 112 L 647 112 L 637 122"/></g><g transform="translate(-22,-102) scale(1,1)"><path fill="#ffffff" stroke="none" d="M 647 112 L 637 122 L 637 327 L 647 317"/></g><g transform="translate(-22,-102) scale(1,1)"><path fill="none" stroke="#000000" d="M 432 122 L 637 122 L 637 327 L 432 327 L 432 122" stroke-miterlimit="10"/></g><g transform="translate(-22,-102) scale(1,1)"><path fill="none" stroke="#000000" d="M 432 122 L 442 112 L 647 112 L 637 122 L 432 122" stroke-miterlimit="10"/></g><g transform="translate(-22,-102) scale(1,1)"><path fill="none" stroke="#000000" d="M 647 112 L 637 122 L 637 327 L 647 317 L 647 112" stroke-miterlimit="10"/></g><g transform="translate(-22,-102) scale(1,1)"><g><path fill="none" stroke="none"/><text fill="#000000" stroke="none" font-family="Arial" font-size="13px" font-style="normal" font-weight="bold" text-decoration="none" x="501.0400390625" y="141.5">Server Side</text></g></g><g transform="translate(-22,-102) scale(1,1)"><rect fill="#C0C0C0" stroke="none" x="81" y="159" width="134" height="48" opacity="0.2"/></g><g transform="translate(-22,-102) scale(1,1)"><rect fill="#ffffff" stroke="none" x="74" y="152" width="134" height="48"/></g><g transform="translate(-22,-102) scale(1,1)"><path fill="none" stroke="#000000" d="M 74 152 L 208 152 L 208 200 L 74 200 L 74 152 Z Z" stroke-miterlimit="10"/></g><g transform="translate(-22,-102) scale(1,1)"><rect fill="#ffffff" stroke="none" x="64" y="159" width="20" height="10"/></g><g transform="translate(-22,-102) scale(1,1)"><path fill="none" stroke="#000000" d="M 64 159 L 84 159 L 84 169 L 64 169 L 64 159 Z Z" stroke-miterlimit="10"/></g><g transform="translate(-22,-102) scale(1,1)"><rect fill="#ffffff" stroke="none" x="64" y="179" width="20" height="10"/></g><g transform="translate(-22,-102) scale(1,1)"><path fill="none" stroke="#000000" d="M 64 179 L 84 179 L 84 189 L 64 189 L 64 179 Z Z" stroke-miterlimit="10"/></g><g transform="translate(-22,-102) scale(1,1)"><g><path fill="none" stroke="none"/><text fill="#000000" stroke="none" font-family="Arial" font-size="13px" font-style="normal" font-weight="bold" text-decoration="none" x="106.990478515625" y="171.5">Web Browser</text></g></g><g transform="translate(-22,-102) scale(1,1)"><rect fill="#C0C0C0" stroke="none" x="481" y="159" width="134" height="48" opacity="0.2"/></g><g transform="translate(-22,-102) scale(1,1)"><rect fill="#ffffff" stroke="none" x="474" y="152" width="134" height="48"/></g><g transform="translate(-22,-102) scale(1,1)"><path fill="none" stroke="#000000" d="M 474 152 L 608 152 L 608 200 L 474 200 L 474 152 Z Z" stroke-miterlimit="10"/></g><g transform="translate(-22,-102) scale(1,1)"><rect fill="#ffffff" stroke="none" x="464" y="159" width="20" height="10"/></g><g transform="translate(-22,-102) scale(1,1)"><path fill="none" stroke="#000000" d="M 464 159 L 484 159 L 484 169 L 464 169 L 464 159 Z Z" stroke-miterlimit="10"/></g><g transform="translate(-22,-102) scale(1,1)"><rect fill="#ffffff" stroke="none" x="464" y="179" width="20" height="10"/></g><g transform="translate(-22,-102) scale(1,1)"><path fill="none" stroke="#000000" d="M 464 179 L 484 179 L 484 189 L 464 189 L 464 179 Z Z" stroke-miterlimit="10"/></g><g transform="translate(-22,-102) scale(1,1)"><g><path fill="none" stroke="none"/><text fill="#000000" stroke="none" font-family="Arial" font-size="13px" font-style="normal" font-weight="bold" text-decoration="none" x="511.6845703125" y="171.5">Web Server</text></g></g><g transform="translate(-22,-102) scale(1,1)"><rect fill="#C0C0C0" stroke="none" x="481" y="255" width="134" height="48" opacity="0.2"/></g><g transform="translate(-22,-102) scale(1,1)"><rect fill="#ffffff" stroke="none" x="474" y="248" width="134" height="48"/></g><g transform="translate(-22,-102) scale(1,1)"><path fill="none" stroke="#000000" d="M 474 248 L 608 248 L 608 296 L 474 296 L 474 248 Z Z" stroke-miterlimit="10"/></g><g transform="translate(-22,-102) scale(1,1)"><rect fill="#ffffff" stroke="none" x="464" y="255" width="20" height="10"/></g><g transform="translate(-22,-102) scale(1,1)"><path fill="none" stroke="#000000" d="M 464 255 L 484 255 L 484 265 L 464 265 L 464 255 Z Z" stroke-miterlimit="10"/></g><g transform="translate(-22,-102) scale(1,1)"><rect fill="#ffffff" stroke="none" x="464" y="275" width="20" height="10"/></g><g transform="translate(-22,-102) scale(1,1)"><path fill="none" stroke="#000000" d="M 464 275 L 484 275 L 484 285 L 464 285 L 464 275 Z Z" stroke-miterlimit="10"/></g><g transform="translate(-22,-102) scale(1,1)"><g><path fill="none" stroke="none"/><text fill="#000000" stroke="none" font-family="Arial" font-size="13px" font-style="normal" font-weight="bold" text-decoration="none" x="518.175048828125" y="267.5">Database</text></g></g><g transform="translate(-22,-102) scale(1,1)"><path fill="none" stroke="#000000" d="M 520 200 L 520 248" stroke-miterlimit="10" stroke-dasharray="3"/></g><g transform="translate(-22,-102) scale(1,1)"><path fill="none" stroke="#000000" d="M 515.790482243984 237.83732514237585 L 520 248 L 524.209517756016 237.83732514237585" stroke-miterlimit="10"/></g><g transform="translate(-22,-102) scale(1,1)"><g><path fill="none" stroke="none"/><text fill="#000000" stroke="none" font-family="Arial" font-size="13px" font-style="normal" font-weight="normal" text-decoration="none" x="467.314453125" y="227.5">+Query</text></g></g><g transform="translate(-22,-102) scale(1,1)"><path fill="none" stroke="#000000" d="M 208 160 L 464 160" stroke-miterlimit="10" stroke-dasharray="3"/></g><g transform="translate(-22,-102) scale(1,1)"><path fill="none" stroke="#000000" d="M 453.83732514237585 164.209517756016 L 464 160 L 453.83732514237585 155.790482243984" stroke-miterlimit="10"/></g><g transform="translate(-22,-102) scale(1,1)"><g><path fill="none" stroke="none"/><text fill="#000000" stroke="none" font-family="Arial" font-size="13px" font-style="normal" font-weight="normal" text-decoration="none" x="307.5" y="151.5">+Request</text></g></g><g transform="translate(-22,-102) scale(1,1)"><path fill="none" stroke="#000000" d="M 464 192 L 208 192" stroke-miterlimit="10" stroke-dasharray="3"/></g><g transform="translate(-22,-102) scale(1,1)"><path fill="none" stroke="#000000" d="M 218.16267485762415 187.790482243984 L 208 192 L 218.16267485762415 196.209517756016" stroke-miterlimit="10"/></g><g transform="translate(-22,-102) scale(1,1)"><g><path fill="none" stroke="none"/><text fill="#000000" stroke="none" font-family="Arial" font-size="13px" font-style="normal" font-weight="normal" text-decoration="none" x="301.5" y="213.5">+Response</text></g></g><g transform="translate(-22,-102) scale(1,1)"><path fill="none" stroke="#000000" d="M 536 247 L 536 201" stroke-miterlimit="10" stroke-dasharray="3"/></g><g transform="translate(-22,-102) scale(1,1)"><path fill="none" stroke="#000000" d="M 540.209517756016 211.16267485762415 L 536 201 L 531.790482243984 211.16267485762415" stroke-miterlimit="10"/></g><g transform="translate(-22,-102) scale(1,1)"><g><path fill="none" stroke="none"/><text fill="#000000" stroke="none" font-family="Arial" font-size="13px" font-style="normal" font-weight="normal" text-decoration="none" x="541.5" y="227.5">+Result</text></g></g></g></svg>